<svg width="25" height="29" viewBox="0 0 25 29" fill="none" xmlns="http://www.w3.org/2000/svg">
    <g filter="url(#filter0_i_0_1)">
        <path d="M12.1866 0L21.9595 4.70638L24.3732 15.2815L17.6101 23.7621H6.76305L0 15.2815L2.4137 4.70638L12.1866 0Z"
            fill="#D9D9D9" />
    </g>
    <path
        d="M19.576 3.59C18.461 2.596 17.111 2.995 15.778 4.178C15.5726 4.36224 15.3754 4.55543 15.187 4.757C12.908 7.175 10.792 11.654 10.134 15.075C10.39 15.594 10.59 16.257 10.722 16.763C10.756 16.893 10.786 17.015 10.811 17.118C10.869 17.363 10.9 17.523 10.9 17.523C10.9 17.523 10.88 17.446 10.796 17.202L10.741 17.044C10.7303 17.0146 10.7186 16.9856 10.706 16.957C10.557 16.611 10.146 15.882 9.965 15.564C9.81 16.021 9.673 16.448 9.559 16.835C10.082 17.791 10.4 19.43 10.4 19.43C10.4 19.43 10.372 19.324 10.241 18.953C10.124 18.625 9.544 17.608 9.406 17.37C9.171 18.239 9.077 18.825 9.162 18.968C9.326 19.245 9.482 19.722 9.619 20.25C9.928 21.439 10.143 22.887 10.143 22.887L10.162 23.131C10.119 24.13 10.145 25.165 10.222 26.101C10.325 27.34 10.517 28.404 10.763 28.974L10.93 28.883C10.569 27.761 10.422 26.29 10.486 24.594C10.583 22.001 11.18 18.875 12.282 15.616C14.145 10.697 16.729 6.75 19.093 4.865C16.938 6.812 14.02 13.113 13.147 15.446C12.169 18.059 11.476 20.511 11.059 22.86C11.78 20.658 14.109 19.711 14.109 19.711C14.109 19.711 15.252 18.302 16.587 16.289C15.787 16.471 14.474 16.784 14.034 16.969C13.385 17.241 13.21 17.334 13.21 17.334C13.21 17.334 15.312 16.054 17.115 15.474C19.595 11.568 22.297 6.018 19.576 3.59Z"
        fill="#444444" />
    <defs>
        <filter id="filter0_i_0_1" x="0" y="0" width="24.3732" height="27.7621" filterUnits="userSpaceOnUse"
            color-interpolation-filters="sRGB">
            <feFlood flood-opacity="0" result="BackgroundImageFix" />
            <feBlend mode="normal" in="SourceGraphic" in2="BackgroundImageFix" result="shape" />
            <feColorMatrix in="SourceAlpha" type="matrix" values="0 0 0 0 0 0 0 0 0 0 0 0 0 0 0 0 0 0 127 0"
                result="hardAlpha" />
            <feOffset dy="4" />
            <feGaussianBlur stdDeviation="2" />
            <feComposite in2="hardAlpha" operator="arithmetic" k2="-1" k3="1" />
            <feColorMatrix type="matrix" values="0 0 0 0 0 0 0 0 0 0 0 0 0 0 0 0 0 0 0.25 0" />
            <feBlend mode="normal" in2="shape" result="effect1_innerShadow_0_1" />
        </filter>
    </defs>
</svg>